<?xml version="1.0" encoding="UTF-8"?><svg id="Layer_1" xmlns="http://www.w3.org/2000/svg" viewBox="0 0 186.7 206.95"><defs><style>.cls-1{fill:#a02f10;}.cls-2{fill:#601908;}.cls-3{fill:#b95d34;}.cls-4{fill:#b75b32;}.cls-5{fill:#a23011;}.cls-6{fill:#a33212;}.cls-7{fill:#bd6138;}.cls-8{fill:#a33313;}.cls-9{fill:#6e3217;}.cls-10{fill:#a22f10;}.cls-11{fill:#a53515;}.cls-12{fill:#611a09;}.cls-13{fill:#e07e50;}.cls-14{fill:#b75931;}.cls-15{fill:#a12f10;}.cls-16{fill:#763d23;}.cls-17{fill:#a03011;}.cls-18{fill:#611b0a;}.cls-19{fill:#bd6137;}.cls-20{fill:#ba5e35;}.cls-21{fill:#611908;}.cls-22{fill:#bb5f36;}.cls-23{fill:#b85c33;}.cls-24{fill:#ba5e34;}.cls-25{fill:#631c0c;}</style></defs><path class="cls-4" d="m12.81,166.54c-5.8-13.44-6.76-27.87-8.23-42.39,1,.49,2.13,1.17,2.23,1.99.85,6.99,6.28,11.17,10.08,16.26,1.17,1.56,4.2,2.72,6.19,2.48,6.09-.73,7.96.46,8.15,6.52.14,4.34,2.43,5.83,6.41,4.15.76-.32,1.48-.81,2.27-.97,9.09-1.82,13.94-12.92,6.66-21.52-3.77-4.45-6.48-9.95-8.97-15.3-2.43-5.23-4.06-10.83-5.87-16.33-.97-2.95-1.57-6.01-2.14-9.18.32-.61.46-1.07.89-1.72,6.32-5.5,7.68-5.26,13.12.71,2.41,2.65,5.18,6.01,8.33,6.75,9.6,2.26,16.26,8.43,23.11,14.74,11.87,10.94,30.38,11.32,42.3.83,1.52-1.34,1.88-3.99,3.04-6.04.44-.01.61-.02,1.1.25,13.41,3.78,23.71-9.13,25.61-18.31,1.47-7.09-1.17-10.71-8.17-12.19-8.39-1.78-14.85,1.46-19.99,8.23-.21,0-.64,0-.65-.42.69-4.16,1.15-7.96,2.14-11.62,2.48-9.06.16-18.1-5.01-24.43-5.44-6.67-14.22-10.63-21.61-15.67-2.05-1.4-3.32-.63-4.71,1.6-2.27,3.61-4.88,7.16-8.01,10.03-6.8,6.23-16.99,4.32-21.26-3.57-3.46-6.38-1.88-21.22,5.82-25.89,1.5.94,2.61,1.91,3.83,2.74,5.6,3.79,11.14,7.67,16.91,11.17,1,.61,3.93.09,4.39-.75,3.95-7.4-3.09-19.49-11.41-19.02-4.73.27-9.36,2.5-14.35,3.71-2.17-3.06-4.02-5.99-5.88-8.91C68.62-1.76,79.1.08,89.4.91c3.43.28,6.79,1.34,10.63,2.57,4.9,6.07,9.35,11.6,13.88,17.45.18.74.28,1.16.36,1.96.31,2.68.72,4.9,3.97,4.44.05.07.19.16.36.45,1.64,4.09,3.36,7.81,4.54,11.69,3.95,12.95,10.1,24.09,21.01,32.94,12.53,10.17,23.23,22.12,22.18,40.51-.44,2.1-.79,3.84-1.4,5.79-4.34,8.6-8.32,17.02-12.53,25.33-1.01,2-2.75,3.63-4.21,5.07-.6-1.55-1.06-2.81-1.7-3.95-3.39-5.99-8.62-8.17-15.37-7.77-5.83.35-9.8,3.08-11.54,8.47-1.5,4.67-2.32,9.56-3.85,14.42-6.32.32-10.84,2.99-14,7.97-1.68,2.66-3.39,5.32-4.92,8.07-4.44,7.98-9.64,10.39-18.56,8.77-2.57-.47-5.29-.58-7.9-.36-5.76.5-11.49,1.31-17.52,1.89-.68-.21-1.08-.31-1.52-.76-1.42-5.9-5.64-8.94-10.31-11.19-4.11-1.98-8.37-1.87-12.18,1.8-.71.09-1.11.15-1.8.15-.48-.05-.67-.05-1.16-.21-4.55-3.41-8.81-6.65-13.07-9.9m44.81-34.77c-4.46,9.45,1.21,20.5,8.86,24.77,3.22,1.79,6.49,1.56,9.58-1.23,4.97-4.5,5.7-10.02,3.85-15.82-1.77-5.58-4.57-10.8-10.93-12.55-4.59-1.27-8.01.86-11.36,4.83m45.6,12.22c-3.25-2.8-6.24-1.32-8,1.44-.88,1.37-.41,5.11.76,5.93,1.68,1.19,5.02,1.63,6.8.72,3.06-1.56,3.44-4.65.45-8.09m-78.54,6.52c-1.17-.97-2.34-1.93-3.5-2.9l-1.67,1.19c1.16,2.2,1.89,4.88,3.64,6.41,1.1.96,3.72.18,5.66.18.05-.45.09-.89.14-1.34-1.25-1.01-2.5-2.02-4.26-3.54m125.43-29.41c-1.35-.79-2.66-1.72-4.11-2.23-.24-.08-1.58,1.69-1.59,2.61,0,.92,1.34,2.7,1.56,2.62,1.46-.52,2.77-1.44,4.14-3.01m-83.22,47.36c1.71-.34,3.42-.68,5.13-1.01-.64-1.14-1.28-2.29-1.92-3.43-1.2,1.27-2.39,2.54-3.21,4.45m49.93-35l3-3.34c-1.42-.37-2.84-.75-4.26-1.12.17,1.44.35,2.87,1.26,4.46Z"/><path class="cls-13" d="m120.1,107.54c-.9,2.04-1.26,4.69-2.78,6.03-11.92,10.49-30.42,10.11-42.3-.83-6.84-6.31-13.51-12.48-23.11-14.74-3.15-.74-5.92-4.1-8.33-6.75-5.44-5.98-6.8-6.21-13.11-1.16.04-3.55,1.27-7.07.47-10.06-.85-3.21-2.99-7.22-5.69-8.48-2.7-1.27-7.53-.69-10.12,1.04-5.09,3.4-7.96,8.81-7.98,15.31-.02,7.86,7.74,13,14.92,9.6,2.64-1.25,4.88-3.37,7.3-5.09.77,3.01,1.37,6.08,2.34,9.03,1.81,5.5,3.44,11.11,5.87,16.33,2.49,5.35,5.2,10.85,8.97,15.3,7.29,8.59,2.43,19.7-6.66,21.52-.79.16-1.51.65-2.27.97-3.98,1.68-6.28.19-6.41-4.15-.19-6.06-2.06-7.25-8.15-6.52-1.99.24-5.02-.92-6.19-2.48-3.8-5.09-9.23-9.27-10.08-16.26-.1-.81-1.22-1.5-2.17-2.42-1.69-10.03-3.51-19.85-4.36-29.75-1.87-21.74,6.1-40.25,19.57-56.87C30.65,23.77,43.3,12.73,58.79,4.54c2.19,2.85,4.05,5.77,6.2,9.17.3.91.3,1.35.31,1.78-7.37,4.71-8.94,19.54-5.49,25.92,4.27,7.89,14.46,9.8,21.26,3.57,3.12-2.86,5.74-6.42,8.01-10.03,1.4-2.22,2.66-3,4.71-1.6,7.39,5.04,16.17,9.01,21.61,15.67,5.17,6.34,7.49,15.38,5.01,24.43-1,3.65-1.45,7.45-2.31,11.93-6.18,10.8-5.68,15.73,1.99,22.14M37.31,41.69c2.57,3.25,5.73,3.82,8.19.48,1.08-1.47,1.08-4.92.06-6.44-1.05-1.56-4.37-3.05-5.98-2.49-3.32,1.16-4.34,4.28-2.27,8.44m63.66,2.85c-3.86.91-4.69,3.98-3.37,6.79.75,1.6,3.92,3.07,5.76,2.81,1.46-.2,3.34-2.97,3.63-4.83.55-3.47-1.88-4.91-6.02-4.77M29.98,124.24c1.61-.78,3.21-1.56,4.82-2.34-.56-.94-.91-2.33-1.73-2.69-1.03-.47-3.43-.38-3.52-.06-.4,1.48-.21,3.13.42,5.1m59.83-35.89c2.8-.96,3.16-2.9,1.4-4.88-.5-.56-2.95-.3-3.69.42-2.25,2.18-.26,3.37,2.28,4.46m-55.93-22.16c-1.67-2.22-3.64-2.45-5.11-.12-.43.69.81,2.43,1.29,3.68,1.33-.95,2.65-1.9,3.82-3.57m-16.01-21.58c-1.21,2.69.17,3.88,2.6,3.72.89-.06,1.69-1.56,2.53-2.41-1.53-.61-3.07-1.23-5.14-1.31Z"/><path class="cls-9" d="m148.24,149.48c1.41-1.8,3.15-3.43,4.16-5.42,4.21-8.31,8.2-16.73,12.85-25.16,2.95,2.43,5.89,3.95,8.86,1.74,1.32-.98,2.03-3.75,1.85-5.59-.33-3.33-4.07-4.15-9.52-2.48.95-18.01-9.75-29.97-22.28-40.14-10.91-8.85-17.06-19.99-21.01-32.94-1.18-3.88-2.9-7.6-4.18-11.7,3.6-.08,5.6-2.49,4.75-4.99-.64-1.87-3.81-3.17-6.12-4.04-.89-.34-2.49,1.19-3.77,1.87-4.45-5.53-8.9-11.07-13.49-16.91,14.13,2.03,28.35,4.55,40.07,13.99,2.17,1.75,3.97,3.97,5.69,6.37-2.24,2.3-4.82,3.86-6.13,6.15-11.36,19.93,2.44,43.42,25.41,43.14,3.35-.04,6.67-2.05,10-3.15,12.56,22.47,14.99,45.8,5.7,70-1.28,3.34-3.35,6.59-5.75,9.26-18.91,21.09-39.92,39.52-66.03,51.43-17.61,8.03-35.43,7.68-53.8,1.29-1-5.57-1.69-10.5-2.37-15.43,5.74-.69,11.47-1.5,17.23-2,2.61-.22,5.32-.11,7.9.36,8.92,1.62,14.12-.79,18.56-8.77,1.53-2.75,3.24-5.41,4.92-8.07,3.15-4.99,7.68-7.66,14.02-7.9.42,0,.47.16.46.56.65,3.3,1.07,6.28,2.03,9.08,3.52,10.29,15.56,13.29,22.54,5.02,3.55-4.21,5.43-10.05,7.22-15.43.79-2.38-.51-5.45-.73-8.45.41-.73.69-1.21.97-1.69Z"/><path class="cls-18" d="m175.33,69.86c-3.29,1.45-6.61,3.46-9.95,3.5-22.97.28-36.77-23.21-25.41-43.14,1.31-2.29,3.89-3.85,6.25-5.82,2.22,2.25,4.29,4.42,5.87,6.91,6.66,10.48,13.2,21.04,19.73,31.61,1.3,2.11,2.33,4.39,3.52,6.94Z"/><path class="cls-25" d="m52.84,186.66c.98,5.03,1.66,9.95,2.35,15.33-12.45-2.95-22.74-9.86-31.79-19.64.85-2.05,1.83-3.46,3.03-4.94.49-.23.72-.43.89-.7.4-.05.81-.11,1.9-.17,3.15,1.17,5.59,2.41,8.08,3.52,4.68,2.1,9.38,4.12,14.07,6.18.39.1.79.21,1.47.41Z"/><path class="cls-16" d="m26.22,177.48c-.98,1.4-1.96,2.81-2.96,4.56-3.46-4.68-6.91-9.7-10.41-15.11,4.21,2.86,8.47,6.11,13.03,9.73.31.38.33.82.33.82Z"/><path class="cls-15" d="m119.13,85.5c4.92-6.76,11.38-10,19.77-8.23,7,1.48,9.63,5.11,8.17,12.19-1.9,9.18-12.2,22.09-25.66,17.9-1-7.74-1.64-14.8-2.28-21.87Z"/><path class="cls-15" d="m57.85,131.46c3.11-3.66,6.53-5.79,11.12-4.52,6.36,1.75,9.16,6.98,10.93,12.55,1.84,5.8,1.12,11.32-3.85,15.82-3.08,2.79-6.36,3.02-9.58,1.23-7.65-4.26-13.32-15.32-8.62-25.08Z"/><path class="cls-23" d="m29.57,92.24c-2.61,1.87-4.85,3.99-7.49,5.24-7.17,3.4-14.93-1.74-14.92-9.6.01-6.5,2.88-11.91,7.98-15.31,2.59-1.73,7.42-2.31,10.12-1.04,2.7,1.27,4.84,5.27,5.69,8.48.79,2.99-.43,6.51-.78,10.25-.14.9-.28,1.36-.6,1.97Z"/><path class="cls-1" d="m148.19,149.12c-.23.83-.51,1.31-1.26,2.12-9.77,5.95-19.51,10.05-30.7,9.29,0,0-.05-.15-.07-.23,1.1-4.87,1.92-9.76,3.42-14.43,1.73-5.4,5.71-8.13,11.54-8.47,6.75-.4,11.98,1.79,15.37,7.77.65,1.14,1.11,2.4,1.7,3.95Z"/><path class="cls-10" d="m65.63,15.52c-.34-.47-.34-.91-.33-1.68,4.69-1.68,9.32-3.91,14.05-4.18,8.32-.47,15.36,11.61,11.41,19.02-.45.84-3.38,1.36-4.39.75-5.77-3.51-11.32-7.38-16.91-11.17-1.22-.82-2.33-1.8-3.83-2.74Z"/><path class="cls-17" d="m51.32,185.9c-4.64-1.71-9.35-3.74-14.02-5.84-2.49-1.12-4.94-2.35-7.78-3.56,3.12-3.67,7.38-3.78,11.49-1.79,4.67,2.26,8.89,5.3,10.31,11.19Z"/><path class="cls-5" d="m103.49,144.26c2.72,3.17,2.34,6.26-.72,7.82-1.78.91-5.12.47-6.8-.72-1.17-.83-1.64-4.56-.76-5.93,1.76-2.76,4.75-4.24,8.28-1.16Z"/><path class="cls-14" d="m118.92,85.5c.85,7.06,1.49,14.12,2.18,21.6-.13.41-.3.41-.74.43-7.94-6.4-8.43-11.33-2.25-21.7.16-.32.59-.32.8-.32Z"/><path class="cls-2" d="m166.34,112.93c5.54-2.04,9.28-1.22,9.62,2.11.18,1.84-.52,4.6-1.85,5.59-2.97,2.21-5.91.69-8.59-1.96.03-1.9.38-3.63.82-5.74Z"/><path class="cls-12" d="m113.91,20.94c1.19-1,2.8-2.53,3.69-2.19,2.3.87,5.48,2.17,6.12,4.04.85,2.5-1.15,4.91-4.92,4.69-.36,0-.51-.08-.59-.46-1.36-1.75-2.64-3.13-3.92-4.51-.1-.42-.19-.85-.37-1.59Z"/><path class="cls-8" d="m24.93,150.76c1.51,1.26,2.76,2.27,4.01,3.28-.05.45-.09.89-.14,1.34-1.94,0-4.56.78-5.66-.18-1.75-1.52-2.48-4.21-3.64-6.41l1.67-1.19c1.17.97,2.34,1.93,3.76,3.15Z"/><path class="cls-8" d="m150.11,121.49c-1.36,1.18-2.68,2.1-4.14,2.62-.22.08-1.56-1.7-1.56-2.62,0-.92,1.35-2.7,1.59-2.61,1.45.51,2.75,1.44,4.11,2.61Z"/><path class="cls-6" d="m66.69,168.14c1.01-1.59,2.2-2.86,3.4-4.13.64,1.14,1.28,2.29,1.92,3.43-1.71.34-3.42.68-5.33.7Z"/><path class="cls-11" d="m116.45,133.38c-.54-1.51-.72-2.95-.89-4.39,1.42.37,2.84.75,4.26,1.12-1,1.11-2,2.23-3.37,3.27Z"/><path class="cls-9" d="m114.27,22.9c1.29,1,2.57,2.38,3.89,4.07-3.17.84-3.58-1.38-3.89-4.07Z"/><path class="cls-17" d="m26.43,177.4c-.21.08-.24-.36-.25-.58.18-.22.37-.22.85-.17.11.32-.11.52-.6.75Z"/><path class="cls-3" d="m37.14,41.34c-1.89-3.82-.87-6.94,2.45-8.1,1.6-.56,4.92.92,5.98,2.49,1.03,1.52,1.03,4.97-.06,6.44-2.46,3.33-5.62,2.77-8.36-.83Z"/><path class="cls-24" d="m101.38,44.51c3.74-.12,6.17,1.33,5.62,4.8-.29,1.85-2.17,4.63-3.63,4.83-1.84.25-5.01-1.22-5.76-2.81-1.32-2.8-.48-5.88,3.78-6.81Z"/><path class="cls-20" d="m29.65,124.05c-.31-1.78-.5-3.42-.1-4.91.09-.32,2.49-.41,3.52.06.81.37,1.17,1.76,1.73,2.69-1.61.78-3.21,1.56-5.15,2.15Z"/><path class="cls-22" d="m89.44,88.32c-2.18-1.06-4.17-2.25-1.92-4.43.74-.72,3.19-.98,3.69-.42,1.75,1.98,1.39,3.92-1.76,4.85Z"/><path class="cls-19" d="m33.96,66.54c-1.25,1.31-2.57,2.26-3.9,3.21-.48-1.26-1.72-3-1.29-3.68,1.47-2.33,3.44-2.1,5.19.47Z"/><path class="cls-7" d="m18.14,44.34c1.8.35,3.34.96,4.87,1.58-.84.84-1.64,2.35-2.53,2.41-2.43.16-3.81-1.03-2.33-3.98Z"/><path class="cls-21" d="m116.22,160.94c11.2.35,20.94-3.75,30.58-9.45.7,2.68,2,5.75,1.21,8.13-1.79,5.38-3.67,11.22-7.22,15.43-6.98,8.27-19.02,5.27-22.54-5.02-.96-2.8-1.37-5.78-2.03-9.08Z"/></svg>