<?xml version="1.0" encoding="UTF-8"?><svg id="Layer_1" xmlns="http://www.w3.org/2000/svg" viewBox="0 0 185.66 206.9"><defs><style>.cls-1{fill:#aa532f;}.cls-2{fill:#631c0b;}.cls-3{fill:#a43314;}.cls-4{fill:#a02f10;}.cls-5{fill:#72361c;}.cls-6{fill:#6e3117;}.cls-7{fill:#a13011;}.cls-8{fill:#a33213;}.cls-9{fill:#a12f0f;}.cls-10{fill:#a22f10;}.cls-11{fill:#641e0e;}.cls-12{fill:#ca421d;}.cls-13{fill:#611a09;}.cls-14{fill:#e07d50;}.cls-15{fill:#6f3218;}.cls-16{fill:#652111;}.cls-17{fill:#b85d35;}.cls-18{fill:#b55931;}.cls-19{fill:#cb451f;}.cls-20{fill:#b65a32;}.cls-21{fill:#6e3318;}.cls-22{fill:#621b0b;}.cls-23{fill:#c9401b;}.cls-24{fill:#cb4521;}.cls-25{fill:#9d3617;}.cls-26{fill:#6e2918;}</style></defs><path class="cls-14" d="m8.81,103.56c5.31-8.15,10.86-16.01,16.71-24.01,1.68.45,1.64,2.62,3.96,2.75.29-2.22-1.76-2.31-3.01-3.42,2.99-6.13.79-12.48,1.49-19.05,3.36-1.16,3.81,1.39,4.08,3.36.47,3.5,2.33,4.1,5.49,3.99,4.55-.15,8.81-1.38,13.17-2.38,6.93-1.59,13.42-1.44,18.72,4.51,3.51,3.94,7.83,7.46,13.47,4.58,5.89-3.01,7.04-8.97,7.05-14.92,0-4.01-1.5-7.78-3.8-11.16-1.02-1.49-2.38-2.81-2.51-5.11,2.51-2.73,5.47-2.68,8.49-2.13,2.45.45,4.86,1.06,7.34,1.4,5.15.71,5.77,1.54,4.52,6.46-1.51,5.96-2.81,11.98-4.89,17.78-.39,1.09-.81,2.2-.99,3.34-.19,1.26-.88,3,.72,3.5,1.63.51,2.06-1.34,2.52-2.49,1.56-3.86,2.71-7.85,3.71-11.89.56-2.24.89-4.6,3.03-6.52,1.94-.67,3.5-.27,5.45.14.63.21.88.32,1.45.65,3.13,4.96,5.1,9.99,5.82,15.82-1.13,3.26-3.27,5.39-5.24,7.63-4.33,4.93-7.4,10.58-10.03,16.89-.41.3-.56.38-.72.41-1.8.34-3.57-2.6-4.9-.87-1.6,2.08.58,2.25,2.11,2.18.98-.05,1.96-.32,3.17.39,1.56,2.23,1.66,4.63,2.51,6.77,2.14,5.37,6.31,7.87,11.31,5.71,5.69-2.45,10.57-1.5,15.8,1.76.96.69,1.45,1.29,2.02,2.32,1.15,4.47,3.25,8.01,5.53,11.54,2.47,3.82,1.37,6.4-3.09,6.27-9.15-.26-17.3,2.75-25.49,6.19-4.26,1.79-8.83,1.21-13.3.4-.94-.17-2.23-.6-2.61.6-.47,1.46.92,2.1,1.99,2.36,5.61,1.37,11.21,1.34,16.72-.57,2.34-.81,4.56-2.11,7.51-1.96,8.11,8.45,8.67,4.66,11.47-2.42.06-.14.22-.24.66-.57,2.52-1.03,4.7-1.01,7.27,0,1.28,1.08,1.5,2.19,1.5,3.79-2.13,5.83-3.35,11.5-5.1,17.01-.6,1.87-1.62,3.64-3.53,5.17-3.1.96-4.7-.97-6.35-2.54-3.2-3.06-6.92-4.39-11.33-4.26-5.18.15-10.31.73-15.3,2.04-9.66,2.54-15.16,9.77-15,19.23.12,6.91,4,10.67,11.01,10.66,1.65,0,3.31-.48,5.3.22,1.19,1.54.8,2.8-.18,4.35-3.28,1.93-6.95,1.87-10.14,4.14-3.95,1.13-7.42,3.2-11.59,1.08-1.02-1.23-1.16-2.37-1.29-3.53-.25-2.34-.4-4.98-3.28-5.46-2.61-.44-2.72,2.43-4.22,4.08-1.01.55-1.75.56-2.84.15-1.86-1.7-1.98-3.79-2.49-5.69-1.74-6.54-5.79-10.78-12.35-12.43-6.17-1.55-11.93-3.82-17.41-7.22-6.32-3.92-11.93-1.27-14.57,5.77-1.5,3.98.04,8.38-2.45,12.34-7.82-3.83-11.54-10.68-14.28-18.64.37-1.38,1.17-1.99,2.02-2.51,4.3-2.61,5.5-6.52,4.49-11.18-1.01-4.69-4.57-6.19-9.21-6.6-8.05-12.42-5.18-24.46,1.15-36.58,2.57.64,1.73,2.53,1.62,4.02-.15,2.15-.35,4.3-.31,6.46.19,11.1,9.07,16.21,18.56,10.26,5.5-3.45,10.01-8.18,12.24-14.63,1.6-4.6,1.47-8.99-2.18-12.46-3.62-3.43-8.11-3.53-12.59-1.8-3.09,1.19-6.05,2.72-9.15,3.93-1.68.65-3.3,1.7-5.46.59Z"/><path class="cls-23" d="m83.58,42.25c7.01,7.65,10.08,15.83,6.35,25.74-3.47,9.21-12.76,11.93-19.16,4.49-7.04-8.18-14.84-8.35-23.7-5.09-4.35,1.6-8.88.7-13.27,1.61-2.06.42-3.14-1.46-2.99-3.65.15-2.21.08-4.34-2.34-5.89-.7-2.19-.9-4.3-.25-6.77,1.7-1.18,3.18-.67,4.45.09,5.61,3.33,10.88,1.75,16.1-.95,1.33-.69,2.66-1.41,3.86-2.28,8.46-6.11,17.95-8.43,28.66-7.81.94-.07,1.47.03,2.28.51Z"/><path class="cls-22" d="m105.58,1.95c6.19-2.04,12.37-2.36,17.95-.34,10.69,3.87,21.72,7.18,31.31,14.26,4.88,6.39,5.9,13.04,2.78,20.14-1.21,2.76-2.95,5.18-6.83,5.27-2.49-1.07-2.81-3.07-3.24-5.03-1.24-5.64-3.73-8.1-9.52-8.15-5.89-.05-10.99-1.61-15.82-5.02-4.88-3.45-5.41-3.15-11.94,1.9-.88.29-1.41.33-2.35.16-7.15-5.21-8.15-15.24-2.35-23.19Z"/><path class="cls-23" d="m21.77,183.14c.57-5.15-.55-10.22,1.71-14.99,3.22-6.78,9.86-9.32,16.05-5.07,5.07,3.48,10.5,5.44,16.32,7,9.91,2.65,14.1,8.07,14.87,19.28-9.4,3.12-18.56,5.26-27.97,2.1-1.11-.37-2.25-.49-3.83-.7-6.68-.86-11.97-3.75-17.17-7.62Z"/><path class="cls-23" d="m8.33,103.46c4.86-1.06,8.92-3.34,13.1-5.28,5.76-2.67,12.2-2.39,15.83,1.42,4.08,4.29,4.28,9.36,2.24,14.82-3.48,9.34-13.23,17.17-21.75,17.15-6.78-.02-11.26-4.06-11.85-10.83-.38-4.31,0-8.6.64-13.29.41-1.56.98-2.67,1.8-3.99Z"/><path class="cls-21" d="m149.55,40.8c6.13-1.53,9.65-8.24,8.06-15.46-.63-2.86-1.72-5.61-2.59-8.81,5.01,1.89,7.88,6.16,10.09,10.88,2.77,5.92,6.03,11.45,10.3,16.45,6.58,7.71,8.14,16.93,7.31,27.19-3.26,2.98-7.13,1.78-11.06,2.4-2.88-.72-3.45-2.86-4.02-4.9-.92-3.31-2.13-6.54-2.98-10.25-.16-1.07-.24-1.77-.47-2.78-.28-.94-.48-1.57-.88-2.46-.21-.5-.29-.71-.47-1.23-.29-.93-.36-1.58-.57-2.19-.39.61-.19,1.36-.61,2.31-.27.5-.41.69-.83,1.08-5.78,2.55-5.8,3.77-.31,8.88.49,1.7.3,3.02-.23,4.25-1.33,3.06-3.16,5.61-7.01,5.13-3.39-.42-6.06-3.83-5.29-7.78,1.34-6.94,1.29-13.83.73-21.21.24-.69.38-.95.83-1.51Z"/><path class="cls-10" d="m82.03,42.11c-1.1,1.51-2.49,1.51-3.8,1.36-9.89-1.1-18.15,2.84-26.04,8.14-7.44,4.99-15.1,6.88-23.42.87-.56-2.27-.04-4.29.79-6.62,3.55-3.81,6.61-7.55,10.3-11.19.5-.34.7-.47,1.23-.78.55-.28.77-.38,1.35-.6,5.81-1.55,11.29-2.82,16.99-1.91,2.05.33,3.51-.17,4.46-2.14.95-1.96,2.53-3.12,4.82-2.61,2.58.58,3.39,2.49,3.11,4.89-.29,2.43,1.5,2.99,3.06,3.91,2.8,1.65,6.13,2.72,7.16,6.68Z"/><path class="cls-2" d="m178.81,123.12c-1.28,6.09-4.89,10.74-7.32,15.95-1.52,3.25-2.35,6.35-1.75,9.99.9,5.48.29,10.87-2.66,16.15-4.42,1.61-4.44-2.45-6.39-4.56-.31-.49-.43-.69-.69-1.21-.33-.73-.51-1.14-.88-1.84-.34-.46-.48-.65-.83-1.11-7.33-7.76-7.58-11.25-.89-18.93,3.31-3.8,4.42-8.48,6.44-13.24.48-.78.84-1.17,1.6-1.73,4.69-1.9,9.07-4.28,13.38.53Z"/><path class="cls-5" d="m160.61,159.39c3.01,1.28,2.45,5.25,5.88,6.06-3.73,9.4-10.62,15.91-20.25,20.03-1.31-.07-2.93-2.99-2.97.96-5.82,4.29-12.97,5-19.24,7.94-1.74.82-3.54,1.51-5.69,2.3-.54-.14-.71-.31-.97-.84-.07-.59-.04-.83.14-1.4,4.89-4.12,9.97-7.44,15.18-11.17.62-.53.99-.81,1.66-1.27.87-.58,1.48-.92,2.37-1.48,4.73-4.11,10.24-6.74,13.98-11.52,1.11-1.41,2.71-1.82,4.79-1.08,1.42,1.7-.14,2.8-.33,4.26,1.6-.87,1.12-2.3,1.06-3.89-.36-4.01,1.27-6.78,4.41-8.89Z"/><path class="cls-6" d="m105.5,1.56c-.41,3.28-1.32,6.38-1.89,9.62-.92,5.17.31,9.25,4.13,13.11-2,6.1-6.37,7.48-14.11,4.55-.77-.42-1.19-.71-1.85-1.27-.62-.58-.94-.95-1.44-1.62-1.36-2.28-2.32-4.37-3.48-6.76-.38-1.01-.5-1.72-.37-2.8,3.96-4.59,7.43-9.04,8.13-15.35,3.7-.62,7.1-.11,10.89.53Z"/><path class="cls-2" d="m94.47.62c1.71,7.09-1.9,11.68-7.26,15.73-1.6-.07-2.18-1.09-2.8-2.09-2.61-4.24-3.5-4.39-7.66-1.65-3.7,2.44-6.11,6.75-11.32,7.5-5.1-3.46-5.66-5.59-2.9-10.62C72.37,3.34,82.19-1.82,94.47.62Z"/><path class="cls-11" d="m170.65,72.8c3.79-1.61,7.47-1.32,11.56-1.29.42,4.52,1.7,8.82,2.6,13.18,1.47,7.1.87,14.16-.59,21.53-4.25,2.48-5.92-1.26-8.66-3.28-.65-1.05-.85-1.83-.97-3.05,1.41-6.99-.51-13.1-2.66-19.18-.71-2.01-1.76-3.91-1.9-6.49.14-.64.25-.88.61-1.43Z"/><path class="cls-7" d="m117.73,194.29c.16.38.13.79.12,1-4.47,3.02-9.44,4.94-13.49,8.43.19.31,0,.33-.04.24-.52-.21-.89-.05-1.29.68-2.71,1.59-5.44,2.23-8.74,2.01-3.8-4.15-4-8.67-.64-13.7,2.83-2.63,5.77-3.79,9.59-3.77,6.41-2.45,10.21,1.61,14.5,5.11Z"/><path class="cls-17" d="m93.6,192.65c-1.22,4.32-1.26,8.69.23,13.48-3.29,1.72-6.34.1-9.77-.75-.56-1.49-1.33-1.94-2.85-1.38-3.98-1.12-7.77-1.94-12.02-2.31-2.3-4.27.01-7.8,1.33-11.82.26-.33.4-.4.48-.43.73-.03,1.38-.02,2.36-.05.53.08.73.19,1.14.56,1.24,2.62,2.49,4.55,5.87,3.07.78-.19,1.23-.16,1.96.17,4.01,2.8,7.34-.24,11.26-.55Z"/><path class="cls-3" d="m70.36,189.54c1.29,3.99-.77,7.46-1.49,11.56-4.83,1.46-9.37.38-13.18-2.47-5.03-3.75-10.69-5.83-16.88-7.79,10.26,1.8,20.67-.43,31.55-1.31Z"/><path class="cls-5" d="m41.17,35.22c-4.24,3.03-5.9,8.27-11.04,10.27,2.61-11.31,8.6-20.62,18.51-27.6,1.65,1.08,2.14,2.88,3.58,4.42-.72,6.24-5.58,8.72-10.09,11.98-.29.22-.25.22-.24.2-.16.14-.32.31-.72.73Z"/><path class="cls-15" d="m175.45,102.44c3.58.07,4.47,4.33,8.18,4.1.21,1.18.04,2.35-.4,3.75-1.72,1.36-5.85,1.46-1.74,4.92.08,2.98-1.07,5.37-2.29,8.07-4.31-2.85-8.41-1.53-12.88.19-1.43-.92-1.27-2.15-.68-3.15,3.16-5.31,5.22-11.14,7.93-16.66.3-.61.88-.98,1.88-1.22Z"/><path class="cls-24" d="m4.68,144.14c2.68-2.89,5.13-1.26,7.5.3,5.78,3.81,5.56,17.01-4.19,19.15-2.27-3.7-2.03-7.81-2.15-11.86-.07-2.45,0-4.9-1.16-7.6Z"/><path class="cls-15" d="m62.36,9.19c-.51,3.71-.94,7.37,3.18,10.14.41.41.52.65.44,1.25-3.34,2.78-7.12,2.42-11.12,2.64-2.56-1.56-1.88-4.37-3.28-6.59,3.16-3.11,6.71-5.37,10.78-7.44Z"/><path class="cls-26" d="m104.85,203.86c1.52-6.15,7.17-6.82,12.61-8.36.4.2.42.4.47.91-4.13,2.83-7.96,5.96-13.07,7.45Z"/><path class="cls-19" d="m26.1,78.81c.46-.18.78-.17,1.11-.2,2.27-.21,4.41-.12,4.61,2.87.11,1.71-.85,2.88-2.57,2.95-2.93.13-3.44-1.86-3.38-4.64-.04-.4.1-.82.23-.99Z"/><path class="cls-2" d="m51.22,16.32c2.56,1.13,4.2,2.57,2.66,5.73-.31.7-.66.89-1.4.85-2.65-.55-3.86-1.86-3.54-4.73.66-.86,1.31-1.34,2.27-1.85Z"/><path class="cls-16" d="m181.88,115.16c-2.58.32-4.89-.47-4.42-3.17.42-2.48,2.71-2.49,5.16-1.5.05,1.48-.25,2.92-.74,4.68Z"/><path class="cls-16" d="m143.61,186.71c-1.6-.3-2.95-.66-2.43-2.47.33-1.13,1.17-2.15,2.3-2.3,1.99-.26,2.31,1.28,2.41,3.2-.66.75-1.32,1.14-2.28,1.57Z"/><path class="cls-25" d="m81.27,204.36c.86-2.55,1.79-2.23,2.52.45-.73.16-1.46-.05-2.52-.45Z"/><path class="cls-26" d="m103.24,204.91c-.1-.31.14-.66.71-1.03.1.32-.14.66-.71,1.03Z"/><path class="cls-20" d="m52.05,23.1c.5-.39.87-.48,1.51-.64,3.99-.72,7.71-1.36,11.84-2.05,1.6-.45,2.71-.1,3.8.34,5.04,2.05,9.77,1.36,14.29-1.53,1.11-.71,2.22-1.52,4.01-.96,1.36,2.27,2.4,4.34,3.27,7.06-.85,1.14-1.65,1.34-2.47,1.51-2.1.44-4.13,1.21-3.44,3.85.66,2.53,2.84,2.39,4.91,1.94.81-.17,1.6-.44,2.77-.27.57.36.78.61,1.02.84,1.07,1.02,1.13,3.42,3.5,2.65.46-.15.76-.74.62-1.23-.64-2.26-2.77-1.16-4.47-1.95-1.36-1.05-1.53-2.22-1.29-3.86.22-.58.34-.79.77-1.23,5.7,2.67,10.56,2.06,15.02-2.7.61-.32,1.05-.36,1.82-.42,8.06-1.39,14.75.28,20.26,6.25,5.22,5.66,11.86,8.89,19.68,10.59,1.56,7.84,2.01,15.35-.19,22.89-.79,2.72.96,4.76,3.58,5.76,2.91,1.12,4.37-.95,5.53-2.95.8-1.39,1.01-3.13,1.51-5.09.14-.58.25-.77.62-1.2,2.18-1.08,2.81-3.33,4.95-4.21,1.86,5.23,3.39,10.37,5.18,15.75.26.25.2.74.18.98-.97,2.2-1.54,4.31-2.03,6.37-1.21,5.08-.65,9.9,2.99,14.04,1.41,1.61,3.07,3.08,3.8,5.61.19,1.05.22,1.77.25,2.86-3.28,7.14-6.56,13.91-9.86,21.05-.34.5-.6.7-.95,1.17-1.57,1.58-3.43,1.78-5.22,1.87-6.49.3-11.83,2.59-15.59,8.38-2.77-.06-5.16-.06-8-.05-.8.32-1.2.52-2,.59-2.83-1.19-5.28-2.1-7.35,1.25-.54.58-.91.84-1.66,1.1-5.54,1-10.02,4.41-15.55,4.31-3.94-.07-7.93.31-11.63-1.31-1.8-.79-3.74-2.08-2.7-4.56.98-2.34,2.69-2.08,4.93-1.31,4.63,1.58,9.48,1.77,14.02-.33,7.9-3.65,15.89-6.63,24.83-5.85,1.23.11,2.87.49,3.47-1.13.47-1.26-.68-2.08-1.39-2.99-2.58-3.29-4.74-6.79-5.29-11.44,1.63-1.8,3.49-.93,5.25-.85,8.55.38,13.36-3.38,14.96-11.82.6-3.17.39-6.31-.85-9.29-3.94-9.44-10.14-17.05-18.68-22.7-5.22-3.45-10.07-2.16-15.04,1.48-.6.14-.85.14-1.42-.05-.83-5.6-3.84-10.19-5.25-15.68-.07-1.39.48-2.22.84-3.12,1.07-2.7,0-4.56-2.59-5.29-2.77-.78-4.33.51-4.23,3.79.26,1,.33,1.68.14,2.69-3.01,5.63-3.18,11.81-5.55,17.29-.39.91-.53,1.94-.98,2.82-.94,1.84-1.59,4.66-4.35,3.7-2.67-.93-2.71-3.6-1.84-5.97,2.69-7.34,4.26-15.01,6.53-22.46.98-3.21.26-4.13-3.03-3.96-5.05.25-9.89-3.32-15.51-.95-.84.01-1.27,0-2.03-.02-2.85-3.55-6.66-5.25-10.48-6.8-1.92-.78-2.83-1.29-1.44-3.46,1.1-1.73.8-3.76-1.41-4.46-2.34-.74-3.95.41-4.03,2.95-.08,2.63-1.67,3.18-3.66,2.6-6.37-1.88-12.43.13-18.99,1.2,2.94-3.7,6.3-7.4,9.79-11.41Z"/><path class="cls-9" d="m120.59,69.78c5.28-5.97,10.92-6.91,16.95-2.82,8.28,5.61,14.42,13.1,18.62,22.17,1.8,3.89,2.3,7.97,1.28,12.12-2.6,10.57-9.71,14.43-21.14,11.3-.71-.5-1.02-.93-1.46-1.59-3.34-8.13-7.36-15.5-13.25-21.82-1.83-1.97-2.63-4.98-1.44-7.52,1.84-3.93,1.23-7.66.43-11.84Z"/><path class="cls-23" d="m105.27,185.45c-5.14,1.47-9.88,1.92-14.17-1.29-5.46-4.09-4.92-9.9-3.7-15.51,1.78-8.13,7.54-12.85,15.18-15,5.57-1.57,11.37-2.24,17.23-2.24,4.45,0,8.11,1.42,11.12,4.68,1.23,1.33,2.36,2.83,4.56,3.48.68.42.87.85.79,1.69-8.88,5.98-17.63,11.65-24.71,19.97-.39.43-.55.6-.96,1.02-.42.41-.59.57-1.02.97-1.38,1.14-2.48,2.06-4.32,2.24Z"/><path class="cls-23" d="m76.21,119.05c-3.84-6.66-7.72-12.93-5.08-20.82,2.4-7.17,8.41-9.71,14.93-6.18,8.41,4.56,15.15,19.8,12.79,28.9-2.09,8.05-9.92,10.45-16.19,4.87-2.23-1.99-4.17-4.3-6.44-6.77Z"/><path class="cls-23" d="m120.54,69.46c3.17,3.92,3.2,7.73.98,12.22-1.74,3.5.72,6.54,3.21,9.23,5.02,5.42,9.18,11.35,10.05,19.4-1.95.26-3.61-.51-5.1-1.6-2.1-1.55-4.31-1.49-6.64-.73-12.12,3.98-16.48,1.15-18.12-12.18-.37-.75-.51-1.17-.24-1.93,1.68-10.21,8.78-16.73,14.86-24.24.27-.19.76-.17,1.01-.17Z"/><path class="cls-20" d="m135.87,161.79c0-.77-.02-1.17-.03-1.88,4.53-6.47,3.68-14.64,7.99-21.2,3.03-.25,3.44,2.01,3.96,3.79,1.83,6.27,5.73,10.69,11.77,13.81.28.23.32.19.29.2.46.41.5.99.83,1.75.21.38.22.55.27.97-1.49,2.83-3.37,5.23-4.17,8.55-.1.61-.19.87-.61.9-2.56-.23-3.83.66-5.54,2.46-3.78,3.99-8.62,6.98-13.38,10.45-.5-.12-.67-.31-.92-.87,2.49-6.49,2.67-12.57-.48-18.94Z"/><path class="cls-4" d="m159.72,156.23c-6.64-.57-10.08-5.13-12.42-10.96-.85-2.13-1.02-4.54-2.88-6.56-.35-1.26-.42-2.33-.54-3.8,3.18-10.79,12.13-9.62,20.57-10.38-1.14,5.73-3.05,11.09-7.43,15.61-5.06,5.23-4.2,8.53,2.71,16.09Z"/><path class="cls-18" d="m104.88,185.75c1.15-1.21,2.26-2.08,3.66-3.09.51-.37.76-.6,1.18-.99.18-.17.15-.17.15-.16,1.42-.99,3.09-1.64,4.66-.93,5.8,2.6,11.87,2.29,18.65,2.46-3.97,4.74-9.18,8.24-14.95,11.54-5.04-1.13-8.38-5.75-14.19-5.34-.01-1.12.4-2.13.83-3.48Z"/><path class="cls-12" d="m31.39,147.85c2.16,3.29,1.86,6.2-1.04,8.06-2.16,1.39-4.71.99-6.74-1.07-1.92-1.95-2.2-4.07-.69-6.22,2.28-3.25,5.22-2.65,8.47-.77Z"/><path class="cls-12" d="m56.85,116.87c-2.72-2.26-4.05-4.46-1.55-7.35,1.86-2.16,4.13-2.69,6.63-1.45,2.56,1.27,3.47,3.46,2.51,6.18-1.3,3.65-4.1,3.78-7.59,2.62Z"/><path class="cls-12" d="m54.02,82.87c-2.61,2.2-5.19,2.48-7.44.46-1.66-1.49-2.24-3.66-1.14-5.91,1.08-2.2,2.94-3.07,5.29-2.91,3.89.27,5.38,3.7,3.29,8.36Z"/><path class="cls-12" d="m71.72,141.2c-1.6,3.27-3.71,5.21-7.19,3.9-2.07-.77-2.93-2.59-2.63-4.8.38-2.8,2-4.52,4.83-4.74,3.7-.29,4.79,2.14,4.99,5.64Z"/><path class="cls-12" d="m133.5,134.47c.81.05,1.22.06,1.95.06.32.82.37,1.65.34,2.48-.11,3.41-1.73,5.79-5.15,6.28-3.61.51-4.72-2.3-5.73-5.4.07-.67.25-.93.72-1.26,2.29-2.01,4.66-2.89,7.87-2.15Z"/><path class="cls-12" d="m45.02,135.22c2.38,2.36,2.58,4.65.65,6.89-1.5,1.74-3.53,1.86-5.46.86-2.01-1.04-2.81-2.94-2.19-5.07,1.01-3.49,3.53-4.06,7-2.68Z"/><path class="cls-12" d="m82.69,192.99c-.44.45-.81.48-1.47.53-2.8.05-4.9-1.02-7.08-2.77-.29-.43-.31-.62-.39-1.1-.02-3.36.77-6.29,4.45-5.92,3.37.34,4.92,2.94,4.72,6.39-.05.82-.11,1.64-.24,2.87Z"/><path class="cls-8" d="m108.26,50.55c-2.39-3.21-.46-5.17,1.94-6.49,2.57-1.41,4.95.04,6.55,1.97,2.22,2.67,1.35,5.19-1.62,7.37-.31.19-.76.09-.99.03-2.06-1.57-2.6-3.83-3.71-6.09-.24,1.44-.54,2.69-2.16,3.21Z"/><path class="cls-19" d="m79.02,161.49c-2.92-.61-3.61-2.28-2.74-4.51.65-1.66,2.05-2.63,3.95-2.39,1.74.22,2.56,1.38,2.65,3.08.13,2.42-.94,3.78-3.85,3.81Z"/><path class="cls-19" d="m104.63,93.35c.27.64.27,1.04.28,1.73-.31.37-.68.37-.93.54-2.2,1.46-4.33,2.5-6.19-.48-.94-1.5-.72-3.09.56-3.96,2.6-1.77,4.59-.55,6.29,2.16Z"/><path class="cls-19" d="m107.09,127.33c-2.32-1.25-2.67-2.9-1.47-4.68.95-1.41,2.56-1.38,4.05-1,1.23.31,2.13,1.19,1.94,2.49-.33,2.3-1.82,3.39-4.52,3.19Z"/><path class="cls-23" d="m108.01,50.71c.65-1.65,1.4-3.04,2.32-4.76,2.21,1.89,3,4.23,3.56,7.07-1.5.56-2.99.58-4.68-.5-.59-.64-.85-1.1-1.2-1.81Z"/><path class="cls-24" d="m59.35,162.16c-3.44.03-3.99-1.81-2.91-4.19.74-1.64,2.32-1.73,3.73-.62,2.24,1.76,1.52,3.31-.82,4.81Z"/><path class="cls-4" d="m149.79,41.3c-6.73.66-12.45-1.52-17.14-6.31-6.1-6.24-12.96-10.75-22.5-10.27,5.58-7.47,6.92-7.73,14.21-2.09,2.74,2.12,5.65,3.5,9.01,3.79q13.18,1.16,16.44,13.68c.05.57.03.75-.02,1.19Z"/><path class="cls-13" d="m161.75,41.77c-1.66-3.57.88-4.84,2.97-5.94,1.55-.81,2.83.58,3.59,1.89.87,1.51,1.07,3.39-.18,4.63-1.96,1.94-4.17,1.51-6.38-.59Z"/><path class="cls-13" d="m161.03,60.97c-.34.34-.73.44-.92.5-3.93.05-5.38-1.98-5.24-5.53.14-3.62,2.69-3.48,5.62-3.44,2.57,2.6,2.39,5.33.54,8.47Z"/><path class="cls-25" d="m161.05,61.33c-.28-2.66-.21-5.3-.13-8.39,0-.45.14-.48.21-.5.69-.61,1.4-.68,2.48-.19.31.22.28.25.28.23.41.44.46,1.04.84,1.8.48.71.77,1.21,1.06,2-1.42,1.93-1.51,4.78-4.74,5.05Z"/><path class="cls-1" d="m163.93,52.09c-.69.38-1.38.38-2.4.35-.66-2.04-.82-4.05-.17-6.55,2.03,1.8,2.59,3.68,2.57,6.2Z"/><path class="cls-1" d="m164.89,54.2c-.3-.18-.63-.65-.98-1.43.31.17.63.65.98,1.43Z"/><path class="cls-20" d="m41.14,35.36c-.13-.21.04-.48.53-.79.13.22-.05.48-.53.79Z"/><path class="cls-4" d="m160.87,158.19c-.32-.16-.66-.61-1.02-1.36.32.16.66.61,1.02,1.36Z"/><path class="cls-22" d="m155.7,168.77c.14-.31.61-.46.84-.54,1.01,1.89,2.34,3.96,0,5.72-1.09.82-2.67,1-3.74.14-1.43-1.16.15-1.97.78-2.78.6-.78,1.31-1.48,2.11-2.53Z"/><path class="cls-18" d="m136.49,180.39c.38.27.39.47.41.98-.45.6-.92.89-1.81.85-.22-1.11.27-1.63,1.39-1.84Z"/><path class="cls-18" d="m134.93,182.56c-.09.35-.3.59-.83.84-.23.09-.22.09-.23.09-.17-.46-.07-.84.65-1.07.33.05.38.11.4.14Z"/><path class="cls-4" d="m87.72,18.21c-2.17.27-3.11,2.46-4.89,3.29-5.6,2.63-11.09,3.16-16.72-.93-.32-.2-.29-.65-.28-.87,2.91-1.85,5.28-4.12,7.71-6.38,6.74-6.28,9.05-5.78,13.2,2.85.4.81.64,1.29.98,2.03Z"/><path class="cls-20" d="m92.06,27c.23-.52.5-.34.81.16.12.21.05.29.01.33-.27.06-.5.09-.83-.48Z"/><path class="cls-20" d="m90.97,25.41c.35.09.6.28.89.77.1.22.06.27.04.29-.48.19-.86.08-1.09-.63.06-.33.13-.4.17-.43Z"/><path class="cls-4" d="m175.86,99.18c-10.52-7.21-11.52-18.35-5.35-25.52,2.42,5.73,5.03,11.47,5.94,17.8.37,2.56.45,4.93-.59,7.72Z"/><path class="cls-3" d="m73.88,190.89c2.57-.52,4.57.87,6.84,2.38-3.26,3-4.92,2.47-6.84-2.38Z"/><path class="cls-10" d="m90.44,25.51c.53.33.72.58,1.21.89.32.43.5.69.98,1.01.21,1.5.21,2.89.23,4.68-.96.99-1.86,1.84-2.91,2.12-2.08.56-4.21.71-5.93-1.09-1.28-1.34-1.45-2.97-.95-4.57.74-2.36,2.62-3.19,4.99-3.07.65.03,1.31.02,2.38.04Z"/><path class="cls-8" d="m92.87,32.51c1.09-.33,2.18-.83,3.3-.95,1.85-.2,3.33.49,3.61,2.55.26,1.9-.74,3.25-2.38,3.98-1.95.86-3.21-.4-4.03-1.92-.44-.82-.34-1.92-.48-3.29,0-.39-.01-.37-.02-.37Z"/><path class="cls-8" d="m140.77,44.68c2.01.99,3.53,2.09,2.67,4.29-.48,1.23-1.44,2.36-2.96,2.14-1.34-.2-2.45-1.01-2.92-2.37-.91-2.63.82-3.49,3.21-4.05Z"/><path class="cls-8" d="m163.19,106.74c2.1-1.79,3.57-1.08,4.87.53.9,1.12.46,2.17-.26,3.14-1.08,1.45-2.68,1.46-3.97.7-1.53-.9-2.28-2.38-.64-4.37Z"/><path class="cls-3" d="m125.69,41.36c-2.28.1-3.74-.53-3.57-2.72.11-1.43,1.21-2.34,2.5-2.83,1.03-.39,2.05-.05,2.61.88,1.1,1.85.86,3.47-1.54,4.67Z"/><path class="cls-3" d="m156.87,116.55c2.3.43,3.36,1.49,2.54,3.51-.43,1.06-1.24,2.03-2.55,2.03-1.3,0-2.13-.96-2.55-2.03-.8-2.03.26-3.08,2.56-3.51Z"/><path class="cls-3" d="m133.71,134.2c-2.01,1.84-4.71,1.46-7.48,2.29,1.01-4.28,3.54-5.23,7.48-2.29Z"/><path class="cls-10" d="m134.98,182.21c-.45.37-.71.56-1.01,1.05-8.1,2.8-15.64,0-23.69-1.74,6.5-8.59,14.8-15.43,25.21-20.08,5.28,5.32,5.76,11.86,1.54,18.69-.76.81-1.35,1.31-2.06,2.07Z"/><path class="cls-10" d="m109.67,181.61c.03.16-.18.43-.62.8-.03-.16.18-.43.62-.8Z"/><path class="cls-3" d="m144.24,160.62c.85-2.07,1.95-3.51,4.13-2.7,1.24.47,2.19,1.46,2.3,2.9.1,1.32-.67,2.18-1.87,2.51-2.17.59-3.86.04-4.56-2.71Z"/></svg>