<?xml version="1.0" encoding="UTF-8"?><svg id="Layer_1" xmlns="http://www.w3.org/2000/svg" viewBox="0 0 192.23 206.19"><defs><style>.cls-1{fill:#631d0c;}.cls-2{fill:#a53314;}.cls-3{fill:#ca411c;}.cls-4{fill:#a02f10;}.cls-5{fill:#b65b32;}.cls-6{fill:#a02f11;}.cls-7{fill:#a23011;}.cls-8{fill:#9d3316;}.cls-9{fill:#a13011;}.cls-10{fill:#651f0e;}.cls-11{fill:#621b0a;}.cls-12{fill:#df7d50;}.cls-13{fill:#a22f10;}.cls-14{fill:#611a09;}.cls-15{fill:#c9411c;}.cls-16{fill:#be856b;}.cls-17{fill:#6e3218;}.cls-18{fill:#cb451f;}.cls-19{fill:#621b0b;}.cls-20{fill:#753b21;}.cls-21{fill:#c9401b;}.cls-22{fill:#a43112;}.cls-23{fill:#a13112;}.cls-24{fill:#cb431d;}.cls-25{fill:#ac512d;}.cls-26{fill:#71371d;}</style></defs><path class="cls-12" d="m21.77,94.99C40.11,59.05,65.47,30.77,106.16,18.3c6.88-1.1,12.98-2.14,19.08-3.17,1.38-.59,2.77-1.17,4.7-1.49,1.13,1.75,1.7,3.23,2.21,5.12-.06,2.43-.06,4.44-.34,6.68-2.09,4.06-3.9,7.89-5.71,11.28.08-10.42-2.94-14.86-11.13-15.34-14.79-.87-20.23,1.8-25.96,14.7-2.42,5.45-2.1,10.3,1.5,14.83,3.67,4.62,8.54,6.57,14.49,5.77-4.32,5.48-8.65,10.61-13.27,15.51-2.82-2.59-5.48-2.85-7.11.44-1.51,3.05.37,4.89,3.38,5.95-2.8,2.65-5.54,4.97-8.3,7.26-3.93,3.25-8,6.34-11.79,9.76-2.48,2.24-2.62,5.49-.14,7.43,1.67,1.3,4.96,1.86,6.97,1.16,5.93-2.07,11.66-4.78,17.3-7.56,2.53-1.25,3.95-.76,6.08.96,3.66,2.94,7.86,5.21,12.12,7.9,1.47.65,2.65,1.15,3.96,2.01-.19,2.42.23,5.47-.97,6.36-4.3,3.2-9.1,5.75-13.8,8.4-3.71,2.09-7.54,3.96-11.34,5.55-.89-6.02-3.79-9.46-7.63-9.39-4.33.08-10.15,5.99-10.48,10.65-.35,4.99,1.76,7.54,6.96,8.72-1.03,5.92-3.52,10.58-8.73,13.17-4.63,2.3-9.45,4.24-14.44,6.11-1.35-1.87-2.25-3.69-3.57-5.12-4.57-4.95-9.93-3.73-12.15,2.65-2.22,6.41-.75,10.32,5.91,16.05-3.66,6.45-8.6,10.39-16.49,9.89-3.66-.92-6.95-1.73-10.36-2.84-3.36-2.07-6.6-3.83-9.93-5.92-.26-.99-.43-1.66-.46-2.78-.43-6.56-.99-12.66-1.55-19.13,0-1.12,0-1.86.24-2.92.72-4.2,1.19-8.08,2.08-11.9,3.72-.71,7.7-.57,10.18-2.43,7.26-5.45,12.72-12.57,15.2-21.53,3.06-11.02.2-15.05-11.11-16.06m33.59,23.87c1.8.09,4.13.92,5.28.11,2.38-1.68,5.05-3.98,5.81-6.56.5-1.69-1.66-4.84-3.45-6.39-2.62-2.28-7.94-.89-10.2,2.15-3.01,4.03-1.57,7.38,2.56,10.7m7.89-60.07c-4.34,5.19-3.09,11.7,2.63,12.22,2.37.21,5.97-1.06,7.13-2.86,1.15-1.8.75-5.55-.4-7.67-1.77-3.23-5.19-3.86-9.35-1.69m-10.14,9.95c-.23-3.56-2.83-4.17-5.3-3.31-1.49.52-3.52,2.94-3.29,4.11.34,1.7,2.27,3.89,3.93,4.34,2.95.8,4.48-1.37,4.66-5.15m-34.21,92.87c1.72-1.52,3.66-2.88,4.99-4.69.31-.41-1.34-3.25-2.33-3.4-1.48-.23-3.75.47-4.64,1.6-1.71,2.15-1.52,4.62,1.99,6.49m20.15-44.14c1.5,1.11,3,2.21,4.51,3.32.82-1.31,2.36-2.69,2.25-3.92-.11-1.23-2.08-3.39-2.86-3.24-1.45.29-2.63,1.96-3.9,3.84Z"/><path class="cls-5" d="m92.04,72.4c4.33-5.12,8.67-10.25,13.28-15.79.77-.74,1.26-1.06,2.13-1.38,6.49-1.91,11.65-5.06,14.91-11.23,1.43-2.42,2.6-4.63,3.77-6.85,1.81-3.83,3.62-7.66,6.06-11.57,3.57.95,6.79,1.75,7.96-2.07.46-1.49-.68-4.43-2-5.25-1.42-.87-3.9-.03-5.91.07-.58-1.48-1.15-2.95-1.95-4.7,2.81-1.02,5.84-1.77,9.64-2.52,1.64.77,2.6,1.46,3.36,2.32,1.67,1.89,3.24,3.86,4.7,6.1-1.69,2.18-2.97,4.38-4.82,5.88-3.39,2.74-3.52,5.51-1.34,8.93-.83.6-1.67.97-1.76,1.48-.3,1.67-.79,3.56-.26,5.03.28.77,2.99,1.58,3.74,1.08,1.22-.81,1.93-2.61,2.47-4.13.37-1.03.07-2.29.41-3.53,3.54-2.91,7.11-5.42,9.86-8.63,5.43-6.33,14.34-9.82,20.97-7.19-10.41,22.8-16.21,46.82-18.19,71.76-.01,0,0,.02-.38-.06-1.14-4.85-2-9.62-2.61-14.41-.44-3.43-.18-7-.99-10.33-.37-1.51-2.7-3.72-3.88-3.57-1.7.22-3.47,2.08-4.59,3.68-.74,1.06-.65,2.91-.49,4.36,1.15,10.33,2.43,20.65,3.62,30.97.43,3.72,1.71,7.85-3.79,9.07-2.88-2.76-5.6-2.4-7.25.53-1.7,3.03.2,4.93,3.1,6.09-2.74,3.37-5.36,6.43-8.29,9.55-.97.16-1.61.28-2.68.31-2.86.27-5.32.48-7.72,1.01-14.11,3.14-18.65,8.36-19.12,21.95-.08.23-.24.7-.57.77-3.01,1.71-5.68,3.36-8.53,4.7-2.59-3.26-6.14-5.11-9.15-2.99-2.35,1.65-3.14,5.51-5.01,8.54-6.3.69-12.26.95-18.11,1.92-1.97.32-3.64,2.42-5.45,3.71,1.53,1.41,2.86,3.2,4.64,4.13,1.76.92,3.97.97,6.95,1.61-5.73,6.64-10.78,12.5-16.13,18.5-2.08,1.38-3.86,2.61-6.04,3.88-3.1.42-5.79.8-8.78.99-3.52-4.97-6.75-9.75-9.97-14.53,7.53.39,12.47-3.55,16.39-10.02.46-.36.64-.37,1.08-.11,5.99,1.08,8.42-.77,8.72-6.29.09-1.66-.01-3.32-.02-5.31.01-.76.01-1.2.02-1.63,4.74-2.1,9.56-4.03,14.19-6.33,5.21-2.59,7.7-7.25,9.11-13.22,3.83-3.47,7.31-6.5,10.79-9.53,3.78-1.97,7.61-3.84,11.32-5.93,4.7-2.65,9.5-5.19,13.8-8.4,1.19-.89.78-3.94,1.21-6.6,6.99-1.52,9.6-6.79,11.38-12.37,1.06-3.33.57-6.85-2.93-9.23-3.63-2.47-6.68-.92-9.59,1.1-6.32,4.38-7.57,11.7-3.35,18.6-3.97-2.55-8.17-4.82-11.83-7.76-2.13-1.72-3.55-2.2-6.08-.96-5.65,2.78-11.38,5.49-17.3,7.56-2.01.7-5.3.15-6.97-1.16-2.48-1.94-2.34-5.19.14-7.43,3.78-3.41,7.85-6.51,11.79-9.76,2.77-2.29,5.51-4.61,8.66-7.31,1.49-2.3,2.58-4.21,3.66-6.12m45.64-8.29c2.41-4.87,1.44-8.75-2.64-10.38-3.9-1.56-7.43-.25-8.79,3.23-.86,2.18-.11,5.95,1.38,7.89,2.7,3.51,6.37,2.82,10.05-.74m-22.38,9.63c2.12-.65,4.24-1.31,6.36-1.96-.69-1.84-.98-4.06-2.23-5.36-.65-.68-3.35-.25-4.49.57-2.39,1.72-2.55,4.08.36,6.75Z"/><path class="cls-17" d="m133.85,126.05c2.61-3.07,5.23-6.13,8.29-9.65,1.63-2.35,2.83-4.25,4.02-6.14,5.31-1.55,4.03-5.68,3.6-9.4-1.19-10.33-2.47-20.64-3.62-30.97-.16-1.45-.25-3.3.49-4.36,1.12-1.6,2.9-3.45,4.59-3.68,1.18-.15,3.51,2.06,3.88,3.57.81,3.33.55,6.89.99,10.33.61,4.8,1.47,9.56,2.62,14.8.69,1.58.62,3.13,1.34,3.74,1.41,1.2,3.28,2.57,4.92,2.51,1.05-.03,3.14-3.05,2.79-3.75-.8-1.59-2.64-3-4.37-3.68-1.15-.44-2.84.52-4.29.85,1.97-24.95,7.77-48.96,18.18-71.77-6.63-2.63-15.53.86-20.97,7.19-2.76,3.21-6.32,5.72-10.26,8.59-1.79,0-2.83-.03-3.88-.06-2.51-3.25-2.38-6.02,1.01-8.76,1.85-1.5,3.13-3.7,5.05-5.89.39-.31.86-.32,1.18-.14,2.63.61,5.1,1.79,7.22,1.34,9-1.93,13.4-8.95,13.47-20.59,6.04-.43,10.51,2.73,14.51,6.77-.55.36-1.05.27-1.17.44-1.14,1.71-2.47,3.39-3.12,5.28-.15.43,2.09,2.36,3.31,2.44,3.3.23,4.44-2.09,4.53-5.06,3.23,2.11,4.43,5.12,3.98,8.88-.54,4.56-1.07,9.12-2.18,13.85-6.43-1.86-11.38-.29-15.18,4.35-4.6,5.61-6.39,11.93-4.81,19.33,1.27,5.95,7.05,11.66,13.15,11.81-1.91,25.85-15.14,45.65-34.18,62.66-5.45-1.63-10.27-3.23-15.08-4.84Z"/><path class="cls-17" d="m52.94,190.13c5.05-5.86,10.11-11.72,15.83-18.36-2.98-.64-5.19-.69-6.95-1.61-1.78-.93-3.11-2.72-4.64-4.13,1.81-1.29,3.48-3.39,5.45-3.71,5.85-.96,11.81-1.23,18.44-1.91,1.14-.13,1.57-.12,2.01.26,1.88,5.09,4.88,6.79,8.5,5.17,3.9-1.75,5.15-5.28,3.44-9.94.02-.25.06-.74.06-.74,2.67-1.65,5.35-3.29,8.68-4.76,1.65,3.33,2.64,6.48,3.63,9.63-6.4,7.76-11.99,16.44-19.43,23.03-8.2,7.26-18.09,12.6-27.58,18.43,1.82-8.18-.01-11.02-7.44-11.36m33.06-18.27c-1.12-3.29-3.17-4.89-6.27-2.52-1.03.79-1.49,2.9-1.41,4.36.04.86,2.02,2.52,2.47,2.32,1.87-.82,3.49-2.21,5.21-4.17Z"/><path class="cls-15" d="m21.58,95.1c11.5.91,14.36,4.94,11.3,15.96-2.48,8.95-7.94,16.08-15.2,21.53-2.48,1.86-6.46,1.72-10.18,2.06-.48-3.55-.54-6.66-.59-9.76,4.41-9.34,8.83-18.68,13.59-28.38.55-.51.65-.71.63-.96,0,0,.27-.34.46-.44Z"/><path class="cls-1" d="m107.73,159.92c-1.33-3.05-2.32-6.2-3.64-9.6-.33-.25-.16-.71.22-1.08,3.21-2.6,6.12-4.76,8.87-7.1,6.08-5.17,12.07-10.43,18.1-15.65.64-.12,1.29-.23,2.25-.4,5.14,1.56,9.95,3.17,15.09,4.92-4.3,3.83-8.73,7.8-13.59,11.14-8.85,6.08-17.96,11.8-27.3,17.76Z"/><path class="cls-19" d="m183.32,67.92c-6.31.17-12.09-5.54-13.36-11.49-1.58-7.4.22-13.72,4.81-19.33,3.8-4.64,8.76-6.21,14.98-4.02-1.82,11.62-4.02,23.07-6.43,34.84Z"/><path class="cls-10" d="m39.05,206.02c-14.35-.96-25.96-6.56-33.04-20.29,1.72-1.94,3.36-3.22,5.17-4.21,4.59,6.76,9.64,12.38,18,13.54,2.96.41,5.92.78,8.9,1.58.34,3.4.66,6.39.98,9.38Z"/><path class="cls-11" d="m169.79,0c.23,11.79-4.16,18.8-13.17,20.74-2.12.45-4.59-.73-7.06-1.65,1.7-5.2,3.57-9.91,5.44-14.61,4.83-1.54,9.66-3.08,14.79-4.47Z"/><path class="cls-20" d="m11,181.23c-1.63,1.28-3.27,2.56-5.07,4.17C.39,178.68-.1,170.38.01,162.04c.07-5.64.69-11.27,1.47-17.29,1.5.56,2.6,1.52,3.69,2.48,0,.74.01,1.49-.31,2.89-.81,7-2.36,13.46,1.73,19.31.17.66.35,1.33.57,2.69,1.33,3.19,2.6,5.67,3.87,8.4,0,.24-.03.72-.03.72Z"/><path class="cls-14" d="m52.65,190.27c7.72.2,9.55,3.04,7.4,11.26-1.19.97-2.37,1.55-4.31,2.02-6.42-1.02-8.2-3.1-8.73-9.43,1.78-1.24,3.57-2.47,5.64-3.85Z"/><path class="cls-26" d="m46.6,194.15c.93,6.3,2.71,8.37,8.8,9.42-4.93,1.02-10.29,1.91-16,2.62-.67-3.16-.99-6.15-1.31-9.77,0-.63.03-1.08.03-1.08,2.7-.39,5.39-.77,8.49-1.19Z"/><path class="cls-8" d="m154.66,4.49c-1.53,4.69-3.4,9.39-5.43,14.42-.15.31-.62.32-.86.33-1.85-1.93-3.42-3.91-5.09-5.8-.77-.86-1.73-1.55-2.98-2.28,4.42-2.19,9.22-4.42,14.36-6.67Z"/><path class="cls-25" d="m5.42,146.91c-1.35-.64-2.44-1.6-3.86-2.59,1.37-6.35,3.06-12.67,5.04-19.21.35,2.88.41,5.98.47,9.47-.46,4.26-.93,8.14-1.65,12.34Z"/><path class="cls-11" d="m188.08,9.71c-.02,3.28-1.15,5.59-4.45,5.36-1.22-.09-3.45-2.01-3.31-2.44.65-1.9,1.98-3.57,3.12-5.28.11-.17.62-.08,1.33-.14,1.34.71,2.29,1.46,3.31,2.5Z"/><path class="cls-16" d="m124.99,14.81c-5.84,1.35-11.94,2.39-18.46,3.42,5.79-1.25,12-2.49,18.46-3.42Z"/><path class="cls-12" d="m20.94,95.55c.21.23.11.43-.26.63-.27-.24-.19-.46.26-.63Z"/><path class="cls-21" d="m107.08,55.24c-.49.32-.98.64-1.77,1.02-6.23,1.22-11.1-.74-14.78-5.35-3.6-4.53-3.92-9.38-1.5-14.83,5.73-12.9,11.17-15.57,25.96-14.7,8.19.48,11.22,4.93,11.13,15.34-1.16,2.65-2.33,4.86-4.12,7.33-5.39,3.9-10.15,7.54-14.92,11.19Z"/><path class="cls-13" d="m110.26,105.47c-4.51-7.04-3.26-14.36,3.06-18.74,2.91-2.01,5.96-3.57,9.59-1.1,3.5,2.38,3.99,5.9,2.93,9.23-1.77,5.58-4.39,10.85-11.51,12.01-1.42-.26-2.6-.77-4.07-1.41Z"/><path class="cls-4" d="m37.82,195.15c.3.2.27.64.25.87-2.97-.17-5.94-.54-8.89-.95-8.36-1.16-13.41-6.78-18-13.54-.17-.29-.15-.77.19-1.16,2.18-1.06,4.03-1.73,5.87-2.39,3.3.81,6.59,1.61,10.25,2.53,3.59,4.89,6.81,9.67,10.33,14.65Z"/><path class="cls-21" d="m88.1,127.79c-3.46,3.42-6.94,6.45-10.8,9.54-5.54-.75-7.65-3.29-7.3-8.29.33-4.65,6.15-10.57,10.48-10.65,3.84-.07,6.74,3.37,7.63,9.39Z"/><path class="cls-21" d="m53.79,157.03c.25.66.25,1.09-.09,1.92-3.11,4.01-5.88,7.64-8.64,11.27-.17,0-.35.01-.78.04-6.94-5.37-8.42-9.28-6.2-15.69,2.21-6.38,7.58-7.6,12.15-2.65,1.32,1.43,2.22,3.25,3.57,5.12Z"/><path class="cls-3" d="m55.01,118.68c-3.77-3.13-5.21-6.48-2.2-10.51,2.26-3.04,7.59-4.42,10.2-2.15,1.79,1.55,3.95,4.7,3.45,6.39-.76,2.58-3.43,4.87-5.81,6.56-1.16.82-3.48-.02-5.64-.29Z"/><path class="cls-3" d="m63.59,58.61c3.83-1.99,7.25-1.36,9.02,1.87,1.16,2.11,1.56,5.86.4,7.67-1.15,1.8-4.75,3.07-7.13,2.86-5.72-.51-6.97-7.02-2.3-12.4Z"/><path class="cls-24" d="m53.12,69.15c-.19,3.36-1.72,5.53-4.67,4.73-1.66-.45-3.59-2.64-3.93-4.34-.23-1.17,1.8-3.59,3.29-4.11,2.47-.86,5.07-.25,5.31,3.72Z"/><path class="cls-7" d="m132.17,18.76c2.08-.52,4.56-1.37,5.98-.49,1.32.81,2.46,3.76,2,5.25-1.17,3.82-4.39,3.03-7.68,1.84-.35-2.16-.36-4.17-.29-6.6Z"/><path class="cls-3" d="m18.57,161.46c-3.16-1.71-3.35-4.18-1.64-6.34.9-1.13,3.17-1.83,4.64-1.6.99.15,2.64,2.99,2.33,3.4-1.33,1.81-3.27,3.16-5.33,4.54Z"/><path class="cls-18" d="m91.75,72.18c-.8,2.13-1.89,4.04-3.33,5.99-3.41-.67-5.29-2.51-3.78-5.56,1.63-3.28,4.29-3.02,7.11-.44Z"/><path class="cls-18" d="m39.05,117.08c1.28-1.49,2.46-3.16,3.91-3.44.78-.15,2.75,2,2.86,3.24.11,1.23-1.43,2.61-2.25,3.92-1.5-1.11-3-2.21-4.52-3.71Z"/><path class="cls-25" d="m6.73,168.96c-4.23-5.38-2.68-11.84-1.88-18.47.88,5.82,1.45,11.91,1.88,18.47Z"/><path class="cls-5" d="m17.12,177.66c-1.73.98-3.57,1.65-5.75,2.47-1.61-2.34-2.88-4.83-4.12-7.68,3.27,1.39,6.52,3.15,9.87,5.22Z"/><path class="cls-6" d="m130.85,126.41c-5.6,5.31-11.6,10.57-17.68,15.73-2.75,2.34-5.65,4.49-8.78,6.86.09-13.22,4.64-18.45,18.74-21.59,2.39-.53,4.86-.74,7.72-1.01Z"/><path class="cls-7" d="m137.4,64.4c-3.41,3.28-7.09,3.97-9.78.46-1.49-1.94-2.23-5.71-1.38-7.89,1.37-3.48,4.9-4.79,8.79-3.23,4.07,1.63,5.04,5.52,2.36,10.66Z"/><path class="cls-9" d="m94.9,154.85c.17.3.13.8-.25,1.11-4.11,1.66-7.85,2.99-11.58,4.33-.43-.01-.86-.03-1.62-.04,1.16-2.88,1.95-6.74,4.3-8.39,3.01-2.12,6.56-.27,9.15,2.99Z"/><path class="cls-7" d="m114.98,73.51c-2.59-2.43-2.43-4.8-.04-6.52,1.14-.82,3.84-1.25,4.49-.57,1.25,1.3,1.54,3.52,2.23,5.36-2.12.65-4.24,1.31-6.67,1.73Z"/><path class="cls-22" d="m45.32,170.49c2.5-3.9,5.27-7.53,8.37-11.21.34,1.6.44,3.27.35,4.92-.3,5.52-2.73,7.37-8.72,6.29Z"/><path class="cls-7" d="m141.83,34.36c1.38-.14,2.43-.1,3.87-.03.39,1.2.69,2.46.32,3.49-.54,1.52-1.26,3.32-2.47,4.13-.76.5-3.47-.3-3.74-1.08-.52-1.47-.03-3.35.26-5.03.09-.51.93-.88,1.76-1.48Z"/><path class="cls-2" d="m107.45,55.24c4.39-3.64,9.16-7.29,14.29-10.98-2.63,5.91-7.79,9.06-14.29,10.98Z"/><path class="cls-23" d="m145.96,109.93c-1.01,2.22-2.2,4.12-3.7,6.17-3.34-.7-5.24-2.61-3.54-5.64,1.64-2.93,4.37-3.29,7.25-.53Z"/><path class="cls-14" d="m159.08,90.23c1.46-.32,3.16-1.29,4.31-.84,1.73.67,3.57,2.08,4.37,3.68.35.69-1.74,3.71-2.79,3.75-1.64.05-3.51-1.32-4.92-2.51-.72-.61-.65-2.15-.95-3.66-.01-.39-.03-.41-.02-.41Z"/><path class="cls-14" d="m83.08,160.66c3.73-1.71,7.47-3.05,11.57-4.46,2.09,4.34.84,7.88-3.06,9.63-3.62,1.62-6.63-.08-8.5-5.17Z"/><path class="cls-14" d="m86,172.24c-1.71,1.57-3.33,2.96-5.2,3.78-.45.2-2.43-1.45-2.47-2.32-.07-1.47.38-3.57,1.41-4.36,3.1-2.37,5.15-.78,6.27,2.9Z"/></svg>